<svg xmlns="http://www.w3.org/2000/svg" viewBox="0 0 332.3 412.03"><defs><style>.cls-1{fill:#e9ecef;}</style></defs><g id="Layer_2" data-name="Layer 2"><g id="Layer_1-2" data-name="Layer 1"><path class="cls-1" d="M78.8,382.55C93,325.88,107.24,269.33,121.52,212.46c-1.6.17-2.92.28-4.23.46q-13.35,1.92-26.71,3.86c-4.61.67-9.23,1.33-13.84,2.1a5,5,0,0,1-3.65-.78,2.92,2.92,0,0,1-1.44-2.5c-.16-2.09-.55-4.15-.77-6.23-.35-3.35-.63-6.72-.93-10.08,0-.54,0-1.09-.06-1.62a2.88,2.88,0,0,1,1.88-3.41,11.33,11.33,0,0,1,3.07-1c7.24-.93,14.5-1.74,21.75-2.65,10-1.26,20-2.57,30-3.87.45-.06.91-.16,1.45-.26,1.05-4.16,2.08-8.28,3.12-12.4q7.62-30.34,15.24-60.69,6.95-27.6,13.92-55.2A46.63,46.63,0,0,1,165,46.82c1.52-2.71,3-5.47,4.6-8.12C173.1,33,178,28.63,183.19,24.6A106.58,106.58,0,0,1,211,9.32a144.57,144.57,0,0,1,15.11-5.27c6-1.53,12-3.18,18.28-3.55,2.43-.15,4.86-.34,7.29-.42a135,135,0,0,1,50.08,7.47,85.82,85.82,0,0,1,18.83,9.39c3,2,6,4.16,8.93,6.32a9.43,9.43,0,0,1,2.05,2.22c1,1.37,1,2.24-.09,3.5a19.22,19.22,0,0,1-2.92,2.78c-6.37,4.91-12.78,9.77-19.17,14.67a4,4,0,0,1-5.07.31,54.4,54.4,0,0,1-5.7-4.21,71.53,71.53,0,0,0-20.21-12.25c-4.13-1.63-8.48-2.27-12.81-3-1.47-.25-1.78,0-2.34,1.31a69.08,69.08,0,0,0-3.53,9.91q-8.16,32.61-16.42,65.21-7.47,29.55-14.95,59.09-1.29,5.1-2.57,10.21c-.14.56-.2,1.15-.33,2,.88,0,1.54,0,2.18-.12l32.64-4c1.8-.22,3.61-.51,5.42-.65a3.84,3.84,0,0,1,4.16,2.61c.91,2.46,1.58,5,2.27,7.55a27,27,0,0,1,.82,4c.25,2.07.4,4.16.52,6.24a3.49,3.49,0,0,1-2.06,3.46,13.78,13.78,0,0,1-4.15,1.49c-12.67,1.74-25.35,3.37-38,5l-10.63,1.35c-.18.58-.41,1.19-.57,1.83q-6.23,24.52-12.45,49.07-7.84,31-15.68,62.05c-3.48,13.81-6.91,27.63-10.47,41.42A56,56,0,0,1,171,374.18a62.54,62.54,0,0,1-15.76,15.37c-10.8,7.56-22.44,13.65-35.34,16.85-9,2.24-18.12,4.51-27.51,5-7,.35-14,.94-21.07.46-4.65-.32-9.27-1-13.9-1.59-3-.39-5.87-1-8.81-1.42-8.31-1.32-16.33-3.83-24.33-6.33A101.17,101.17,0,0,1,14,398.15a47.84,47.84,0,0,1-5.3-2.55,85.74,85.74,0,0,1-7.43-4.89c-1.81-1.36-1.69-3.21.1-4.57,6.8-5.13,13.66-10.2,20.42-15.38,3.14-2.42,6.32-2,9.83,0,2.47,1.39,4.85,2.94,7.31,4.34a58.7,58.7,0,0,0,31.1,7.73Zm35-3.29c0,2.06.41,2.41,2.1,2.14a8.82,8.82,0,0,0,1.77-.44c2.07-.83,4.16-1.62,6.17-2.57,11.17-5.32,18.71-13.63,21.68-25.9,4-16.67,8.23-33.29,12.38-49.93q8.37-33.6,16.76-67.2,7.15-28.7,14.28-57.39,8.68-34.89,17.37-69.76Q213.61,78.92,221,49.66c1-4.06,2.16-8.1,3.13-12.18.59-2.46-.4-3.38-2.83-2.69A18.6,18.6,0,0,0,217,36.52c-4.13,2.45-8.27,4.9-12.22,7.62a44.29,44.29,0,0,0-14.64,16.78,68.53,68.53,0,0,0-4.72,12.92c-1.86,6.84-3.39,13.77-5,20.68q-11.52,49.11-23,98.23-11.08,47.33-22.2,94.63-10.53,44.83-21,89.67C114,377.9,113.86,378.77,113.76,379.26Z"/></g></g></svg>